<svg display="none" xmlns="http://www.w3.org/2000/svg">
	<symbol id="logo-icon" viewBox="0 0 80 24" fill="none">
		<path d="M9.18 1.44H13.05L22.29 22.68H17.01L15.18 18.18H6.93L5.16 22.68H0L9.18 1.44ZM10.98 7.62L8.4 14.22H13.59L10.98 7.62Z" fill="#01996D"/>
		<path d="M23.9163 0H28.4163V22.68H23.9163V0Z" fill="#01996D"/>
		<path d="M31.7093 8.1H36.2093V22.68H31.7093V8.1ZM31.3493 3.51C31.3493 2.79 31.5993 2.18 32.0993 1.68C32.6193 1.16 33.2393 0.900001 33.9593 0.900001C34.6793 0.900001 35.2893 1.16 35.7893 1.68C36.3093 2.18 36.5693 2.79 36.5693 3.51C36.5693 4.23 36.3093 4.85 35.7893 5.37C35.2893 5.87 34.6793 6.12 33.9593 6.12C33.2393 6.12 32.6193 5.87 32.0993 5.37C31.5993 4.85 31.3493 4.23 31.3493 3.51Z" fill="#01996D"/>
		<path d="M37.9123 8.1H42.7723L46.4623 18H46.5223L49.9423 8.1H54.4723L48.7123 22.68H43.9423L37.9123 8.1Z" fill="#01996D"/>
		<path d="M56.1722 8.1H60.6722V22.68H56.1722V8.1ZM55.8122 3.51C55.8122 2.79 56.0622 2.18 56.5622 1.68C57.0822 1.16 57.7022 0.900001 58.4222 0.900001C59.1422 0.900001 59.7522 1.16 60.2522 1.68C60.7722 2.18 61.0322 2.79 61.0322 3.51C61.0322 4.23 60.7722 4.85 60.2522 5.37C59.7522 5.87 59.1422 6.12 58.4222 6.12C57.7022 6.12 57.0822 5.87 56.5622 5.37C56.0622 4.85 55.8122 4.23 55.8122 3.51Z" fill="#01996D"/>
		<path d="M63.3652 15.39C63.3652 14.23 63.5752 13.18 63.9952 12.24C64.4152 11.3 64.9852 10.5 65.7052 9.84C66.4452 9.16 67.3052 8.64 68.2852 8.28C69.2852 7.92 70.3452 7.74 71.4652 7.74C72.5852 7.74 73.6352 7.92 74.6152 8.28C75.6152 8.64 76.4752 9.16 77.1952 9.84C77.9352 10.5 78.5152 11.3 78.9352 12.24C79.3552 13.18 79.5652 14.23 79.5652 15.39C79.5652 16.55 79.3552 17.6 78.9352 18.54C78.5152 19.48 77.9352 20.29 77.1952 20.97C76.4752 21.63 75.6152 22.14 74.6152 22.5C73.6352 22.86 72.5852 23.04 71.4652 23.04C70.3452 23.04 69.2852 22.86 68.2852 22.5C67.3052 22.14 66.4452 21.63 65.7052 20.97C64.9852 20.29 64.4152 19.48 63.9952 18.54C63.5752 17.6 63.3652 16.55 63.3652 15.39ZM67.8652 15.39C67.8652 16.49 68.1752 17.38 68.7952 18.06C69.4352 18.74 70.3252 19.08 71.4652 19.08C72.6052 19.08 73.4852 18.74 74.1052 18.06C74.7452 17.38 75.0652 16.49 75.0652 15.39C75.0652 14.29 74.7452 13.4 74.1052 12.72C73.4852 12.04 72.6052 11.7 71.4652 11.7C70.3252 11.7 69.4352 12.04 68.7952 12.72C68.1752 13.4 67.8652 14.29 67.8652 15.39Z" fill="#01996D"/>
	</symbol>

	
</svg>
